<?xml version="1.0" standalone="no"?>
<!DOCTYPE svg PUBLIC "-//W3C//DTD SVG 20010904//EN"
 "http://www.w3.org/TR/2001/REC-SVG-20010904/DTD/svg10.dtd">
<svg version="1.0" xmlns="http://www.w3.org/2000/svg"
 width="200.000000pt" height="200.000000pt" viewBox="0 0 200.000000 200.000000"
 preserveAspectRatio="xMidYMid meet">

<g transform="translate(0.000000,200.000000) scale(0.100000,-0.100000)"
fill="#000000" stroke="none">
<path d="M0 1000 l0 -1000 1000 0 1000 0 0 1000 0 1000 -1000 0 -1000 0 0
-1000z m1105 426 c58 -27 77 -48 261 -296 72 -96 179 -239 237 -318 89 -118
107 -149 107 -178 0 -65 -72 -112 -135 -88 -9 4 -131 159 -271 345 -139 186
-262 343 -273 349 -56 29 -64 21 -346 -355 -119 -159 -230 -302 -246 -318 -82
-77 -206 30 -142 123 50 73 489 659 512 684 68 74 199 98 296 52z m-23 -583
c98 -98 -20 -261 -143 -198 -34 18 -69 69 -69 103 0 112 134 172 212 95z"/>
</g>
</svg>
